# xmcd
#
# Track frame offsets: 
#        150
#        12333
#        37633
#        54111
#        71699
#        94390
#        118483
#        142896
#        159757
#        175024
#        202802
#        221040
#        235115
#        266071
#        281868
#        304494
#
# Disc length: 4355 seconds
#
# Revision: 0
# Processed by: cddbd v1.5.2PL0 Copyright (c) Steve Scherf et al.
# Submitted via: ExactAudioCopy v0.99pb1
#
DISCID=e0110110
DTITLE=Heini Altbart - Blues Master
DYEAR=2006
DGENRE=Blues
TTITLE0=Grits Ain't Groceries
TTITLE1=Red House
TTITLE2=Captain O. Blues
TTITLE3=Hound Dog
TTITLE4=Kansas City
TTITLE5=You Make Me Feel Like A Natural Woman
TTITLE6=The Thrill Is Gone
TTITLE7=Nothing from Nothing
TTITLE8=St. Louis Blues
TTITLE9=They Call It Stormy Monday
TTITLE10=All Right, Ok, You Win
TTITLE11=St. James Infirmary
TTITLE12=Back At The Chicken Shack
TTITLE13=Lazy Blues
TTITLE14=Little Red Rooster
TTITLE15=Honky Tonk Woman
EXTD=
EXTT0=
EXTT1=
EXTT2=
EXTT3=
EXTT4=
EXTT5=
EXTT6=
EXTT7=
EXTT8=
EXTT9=
EXTT10=
EXTT11=
EXTT12=
EXTT13=
EXTT14=
EXTT15=
PLAYORDER=
